<svg version="1.1" xmlns="http://www.w3.org/2000/svg" xmlns:xlink="http://www.w3.org/1999/xlink" width="355.91038" height="342.97597" viewBox="0,0,355.91038,342.97597"><g transform="translate(-84.72988,-22)"><g data-paper-data="{&quot;isPaintingLayer&quot;:true}" fill="#ff0000" fill-rule="nonzero" stroke="none" stroke-width="0" stroke-linecap="butt" stroke-linejoin="miter" stroke-miterlimit="10" stroke-dasharray="" stroke-dashoffset="0" style="mix-blend-mode: normal"><path d="M84.72988,363.97597v-24h36v24z"/><path d="M162.72986,364.97597v-24h40v24z"/><path d="M231.92575,357.17719v-13.51351h16.51652v13.51351z"/><path d="M94.35438,293.39187v-15.01502h27.02703v15.01502z"/><path d="M392.54214,290.12984v-14h27.6v14z"/><path d="M422.40204,240.06681v-122.84534h17.94121v122.84534z"/><path d="M436.62144,332.96849v-85.4h4.01882v85.4z"/><path d="M419.93765,332.94618v-10.8h18.5v10.8z"/><path d="M368.82352,322.34617v-10.6h8.6v10.6z"/><path d="M393.0234,322.54616v-10.6h8.6v10.6z"/><path d="M393.02349,354.34617v-10.6h8.6v10.6z"/><path d="M379.19115,53.71395v-18h27.5v18z"/><path d="M322.69106,53.21395v-18h27.5v18z"/><path d="M126.50003,39.5v-17.5h34.5v17.5z"/><path d="M400.12798,247.84787v-9.25h40.27469v9.25z"/></g></g></svg>