<svg version="1.1" xmlns="http://www.w3.org/2000/svg" xmlns:xlink="http://www.w3.org/1999/xlink" width="657.65766" height="525.25" viewBox="0,0,657.65766,525.25"><g transform="translate(88.82883,123.02778)"><g data-paper-data="{&quot;isPaintingLayer&quot;:true}" fill-rule="nonzero" stroke-linecap="butt" stroke-linejoin="miter" stroke-miterlimit="10" stroke-dasharray="" stroke-dashoffset="0" style="mix-blend-mode: normal"><path d="M-88.82883,402.22222v-444.44444h657.65766v444.44444z" fill="#005fff" stroke="none" stroke-width="0"/><text transform="translate(19.39546,170.01873) scale(0.86512,0.86512)" font-size="40" xml:space="preserve" fill="#000000" fill-rule="nonzero" stroke="none" stroke-width="1" stroke-linecap="butt" stroke-linejoin="miter" stroke-miterlimit="10" stroke-dasharray="" stroke-dashoffset="0" font-family="Pixel" font-weight="normal" text-anchor="start" style="mix-blend-mode: normal"><tspan x="0" dy="0">Use arrow keys to move</tspan><tspan x="0" dy="46.150000000000006px"> left and right and jump</tspan></text><g stroke="#000000" font-family="Pixel" font-weight="normal" font-size="40" text-anchor="start"><text transform="translate(95.62785,101.26089) scale(1.56078,1.56078)" font-size="40" xml:space="preserve" fill="#000000" fill-rule="nonzero" stroke="#000000" stroke-width="10" stroke-linecap="butt" stroke-linejoin="miter" stroke-miterlimit="10" stroke-dasharray="" stroke-dashoffset="0" font-family="Pixel" font-weight="normal" text-anchor="start" style="mix-blend-mode: normal"><tspan x="0" dy="0">Controls</tspan></text><text transform="translate(96.12335,100.25488) scale(1.56078,1.56078)" font-size="40" xml:space="preserve" fill="#ffffff" fill-rule="nonzero" stroke="#000000" stroke-width="0" stroke-linecap="butt" stroke-linejoin="miter" stroke-miterlimit="10" stroke-dasharray="" stroke-dashoffset="0" font-family="Pixel" font-weight="normal" text-anchor="start" style="mix-blend-mode: normal"><tspan x="0" dy="0">Controls</tspan></text></g><text transform="translate(452.46246,-97.77778) scale(0.5,0.5)" font-size="40" xml:space="preserve" fill="#000000" fill-rule="nonzero" stroke="none" stroke-width="1" stroke-linecap="butt" stroke-linejoin="miter" stroke-miterlimit="10" stroke-dasharray="" stroke-dashoffset="0" font-family="Pixel" font-weight="normal" text-anchor="start" style="mix-blend-mode: normal"><tspan x="0" dy="0">dw</tspan></text><path d="M403.08028,332.57138c-13.47719,-13.47719 -13.47719,-35.32804 0,-48.80523c13.47719,-13.47719 35.32804,-13.47719 48.80523,0c13.47719,13.47719 13.47719,35.32804 0,48.80523c-13.47719,13.47719 -35.32804,13.47719 -48.80523,0z" data-paper-data="{&quot;index&quot;:null}" fill="#0045bd" stroke="#000000" stroke-width="1.5"/><path d="M431.70782,308.7357c0,0 -2.68204,-2.24971 -2.19737,-5.11536c-0.15894,-0.01785 -0.31848,-0.03089 -0.47876,-0.03823c-4.76228,-0.21803 -6.4894,4.37922 -9.65936,7.0813c-0.62979,0.53684 -2.09217,0.50677 -2.09358,1.33432c-0.00293,1.71333 1.70247,3.02841 2.0833,4.69889c0.34401,1.50901 0.03095,3.09529 0.04642,4.64293c0,0 0.00002,3.59485 -3.59485,3.59485c-3.59485,0.00002 -3.59485,-3.59485 -3.59485,-3.59485c0.04946,-3.72069 -2.54284,-7.32224 -1.93739,-10.99368c0.33774,-2.04798 2.6161,-3.22573 4.00707,-4.76634c4.36226,-4.83159 7.6646,-8.98686 14.74325,-9.18711c0.85397,-0.02416 1.69545,0.10986 2.53264,0.29882c2.41514,-3.00404 3.2325,-6.45095 4.58479,-6.39947c4.04782,0.15407 17.59199,13.43697 17.36308,14.00861c-0.91979,2.29696 -7.79879,5.01504 -10.24567,5.38239c-4.63142,0.6953 -6.9672,0.54973 -11.55873,-0.94705z" data-paper-data="{&quot;index&quot;:null}" fill="#000000" stroke="#ffffff" stroke-width="3"/></g></g></svg>