<svg version="1.1" xmlns="http://www.w3.org/2000/svg" xmlns:xlink="http://www.w3.org/1999/xlink" width="455.25886" height="382.03209" viewBox="0,0,455.25886,382.03209"><g transform="translate(-43.16035,0.56417)"><g data-paper-data="{&quot;isPaintingLayer&quot;:true}" fill="#ff0000" fill-rule="nonzero" stroke-width="0" stroke-linecap="butt" stroke-linejoin="miter" stroke-miterlimit="10" stroke-dasharray="" stroke-dashoffset="0" style="mix-blend-mode: normal"><path d="M150.6404,81.43989v-19.33421h74.18943v19.33422z" stroke="#000000"/><path d="M252.29646,46.5817v-47.14587h9.61528v47.14587z" stroke="none"/><path d="M294.6404,81.43989v-19.33421h147.68943v19.33422z" stroke="#000000"/><path d="M121.50793,196.46792v-1c0,0 18.66588,-11.87711 38.02678,-11.70226c6.82248,0.06161 28.54278,11.2286 36.99764,11.47987c13.8505,0.41163 23.49803,-13.5094 42.01935,-13.93958c8.87044,-0.20603 26.71194,13.70054 34.98364,13.92001c9.92133,0.26324 16.9715,-13.42987 27.0643,-13.09669c8.46857,0.27956 14.79803,11.66215 22.97763,15.28947c4.98763,2.2118 22.91953,-2.85721 27.79329,-2.30852c19.66339,2.21375 25.90169,-16.9336 44.17829,-16.79153c32.3408,0.25141 74.67035,18.27791 98.01563,17.684c20.87207,-0.53099 -28.0825,-0.29292 -98.48366,0.20109c-18.6375,0.13078 -246.04803,1.91809 -287.46537,2.16262c-3.91031,0.02309 -61.31011,-1.95893 -64.1421,-1.94664c-2.63523,0.01144 12.00473,-25.25888 20.09684,-25.60172c8.09211,-0.34284 11.26801,21.17282 22.92247,23.04153c21.56307,3.4575 35.01527,2.60836 35.01527,2.60836z" stroke="none"/><path d="M165.95961,364.46792c0,-9.38884 -12.75988,-17 -28.5,-17c-15.74012,0 -28.5,7.61116 -28.5,17c0,9.38884 12.75989,17 28.5,17c15.74012,0 28.5,-7.61116 28.5,-17z" stroke="none"/><path d="M300.95961,364.46792c0,-9.38884 -12.75988,-17 -28.5,-17c-15.74012,0 -28.5,7.61116 -28.5,17c0,9.38884 12.75988,17 28.5,17c15.74012,0 28.5,-7.61116 28.5,-17z" stroke="none"/><path d="M435.95961,364.46792c0,-9.38884 -12.75988,-17 -28.5,-17c-15.74012,0 -28.5,7.61116 -28.5,17c0,9.38884 12.75988,17 28.5,17c15.74012,0 28.5,-7.61116 28.5,-17z" stroke="none"/></g></g></svg>