<svg version="1.1" xmlns="http://www.w3.org/2000/svg" xmlns:xlink="http://www.w3.org/1999/xlink" width="799.50526" height="366.69887" viewBox="0,0,799.50526,366.69887"><g transform="translate(159.75262,4.4703)"><g data-paper-data="{&quot;isPaintingLayer&quot;:true}" fill-rule="nonzero" stroke-linecap="butt" stroke-linejoin="miter" stroke-miterlimit="10" stroke-dasharray="" stroke-dashoffset="0" style="mix-blend-mode: normal"><path d="M484.38251,360.97857v-104.68686h154.12012v104.68686z" fill="#ffb7b7" stroke="#000000" stroke-width="2.5"/><g data-paper-data="{&quot;index&quot;:null}" fill="#000000" stroke="none" stroke-width="0"><path d="M491.58446,321.79259v-25.03846h117v25.03846z"/><path d="M574.58444,351.67721v-83.19231l53,42z"/></g><path d="M-158.50262,360.97857v-104.68686h154.12012v104.68686z" fill="#ffb7b7" stroke="#000000" stroke-width="2.5"/><g fill="#000000" stroke="none" stroke-width="0"><path d="M-128.58445,319.88874v-25.03846h117v25.03846z"/><path d="M-147.58445,308.58105l53,-42v83.19231z"/></g><path d="M484.38252,256.11521v-259.33551h154.12012v259.33552z" fill="#ffb7b7" stroke="#000000" stroke-width="2.5"/><path d="M-158.50261,256.11521v-259.33551h154.12012v259.33552z" fill="#ffb7b7" stroke="#000000" stroke-width="2.5"/><g fill="#000000" stroke="none" stroke-width="0"><g data-paper-data="{&quot;index&quot;:null}"><path d="M526.83913,233.58264l-17.70487,-17.70486l82.7315,-82.73149l17.70487,17.70486z"/><path d="M606.66061,196.02439l-58.82584,-58.82585l67.17514,-7.77818z"/></g><g data-paper-data="{&quot;index&quot;:null}"><path d="M-129.5706,150.85114l17.70487,-17.70486l82.7315,82.7315l-17.70487,17.70486z"/><path d="M-135.00988,129.42037l67.17514,7.77818l-58.82584,58.82585z"/></g></g><g fill="#000000" stroke="none" stroke-width="0"><g data-paper-data="{&quot;index&quot;:null}"><path d="M526.83913,128.47753l-17.70486,-17.70487l82.73149,-82.73149l17.70487,17.70487z"/><path d="M606.66059,90.91928l-58.82584,-58.82584l67.17515,-7.77818z"/></g><g data-paper-data="{&quot;index&quot;:null}"><path d="M-129.5706,45.74604l17.70486,-17.70487l82.7315,82.7315l-17.70486,17.70487z"/><path d="M-135.00989,24.31526l67.17515,7.77818l-58.82584,58.82585z"/></g></g></g></g></svg>