<svg version="1.1" xmlns="http://www.w3.org/2000/svg" xmlns:xlink="http://www.w3.org/1999/xlink" width="557.72027" height="382.975" viewBox="0,0,557.72027,382.975"><g transform="translate(13.00296,10.4)"><g data-paper-data="{&quot;isPaintingLayer&quot;:true}" fill="#1000ff" fill-rule="nonzero" stroke-width="0" stroke-linecap="butt" stroke-linejoin="miter" stroke-miterlimit="10" stroke-dasharray="" stroke-dashoffset="0" style="mix-blend-mode: normal"><path d="M-13.00296,80.9009v-19.51952h165.47534v19.51952z" stroke="none"/><path d="M53.06308,72.87989v-31.01802h16.51652v31.01803z" stroke="none"/><path d="M93.94855,57v-67.4h20v67.4z" stroke="none"/><path d="M182.51473,54.01227v-10.79119h18.43495v10.79119z" stroke="none"/><path d="M189.62959,46.88715v-36.42027h11.24082v36.42027z" stroke="none"/><path d="M138.37142,31.59963v-7.64376h13.93862v7.64376z" stroke="none"/><path d="M233.4456,45.27153v-8.3746h19.85089v8.3746z" stroke="none"/><path d="M223.69417,81.24835v-19.51952h71.49377v19.51952z" stroke="none"/><path d="M348.19693,62.30453v-13.95766h29.156v13.95766z" stroke="#000000"/><path d="M420.95038,142.94475v-23.69211h100.48722v23.69211z" stroke="none"/><path d="M416.71732,165.55v-26h110v26z" stroke="none"/><path d="M412.71731,190.55v-28h132v28z" stroke="none"/><path d="M26.71731,226.55v-36h480v36z" stroke="none"/><path d="M274.71727,153.55v-8h78v8z" stroke="none"/><path d="M182.7173,152.55v-14h30v14z" stroke="none"/><path d="M64.71729,150.55v-22h62v22z" stroke="none"/><path d="M26.71731,208.55v-80h40v80z" stroke="none"/><path d="M407.71731,206.55v-28h132v28z" stroke="none"/><path d="M-8.44451,275.55v-11h441v11z" stroke="none"/><path d="M85.55549,275.55v-33h16v33z" stroke="none"/><path d="M125.55549,253.55v-51h16v51z" stroke="none"/><path d="M168.55549,268.55v-29h14v29z" stroke="none"/><path d="M204.55549,257.55v-53h13v53z" stroke="none"/><path d="M242.62691,268.55v-30h15.71429v30z" stroke="none"/><path d="M280.55548,258.55v-49h17v49z" stroke="none"/><path d="M319.55548,267.55v-26h21v26z" stroke="none"/><path d="M362.55548,259.55v-49h17v49z" stroke="none"/><path d="M411.55549,268.55v-26h21v26z" stroke="none"/><path d="M46.55545,318.55v-14h442v14z" stroke="none"/><path d="M-9.50296,372.575v-19h493v19z" stroke="none"/></g></g></svg>