<svg version="1.1" xmlns="http://www.w3.org/2000/svg" xmlns:xlink="http://www.w3.org/1999/xlink" width="505.31665" height="377.01603" viewBox="0,0,505.31665,377.01603"><g transform="translate(15.06811,8.53206)"><g data-paper-data="{&quot;isPaintingLayer&quot;:true}" fill="#1000ff" fill-rule="nonzero" stroke="none" stroke-width="0" stroke-linecap="butt" stroke-linejoin="miter" stroke-miterlimit="10" stroke-dasharray="" stroke-dashoffset="0" style="mix-blend-mode: normal"><path d="M-15.00293,84.1009v-22.71952h293.47534v22.71952z"/><path d="M25.13841,125.70543v-15.13043h264.89074v15.13043z"/><path d="M-11.50294,183.0875v-21h433v21z"/><path d="M370.49721,164.08748v-102h51.25v102z"/><path d="M360.49721,167.08748v-24h26v24z"/><path d="M360.49721,124.0875v-18h26v18z"/><path d="M318.4971,134.50417v-5.83333h10v5.83333z"/><path d="M319.4971,102.0875v-18h10v18z"/><path d="M361.49721,80.0875v-18h26v18z"/><path d="M308.95964,134.46794v-143h13.18784v143z"/><path d="M-15.06811,41.08749v-5h49.56515v5z"/><path d="M32.49703,41.08749v-27h6v27z"/><path d="M418.74859,75.98397v-14h38.91176v14z" data-paper-data="{&quot;index&quot;:null}"/><path d="M421.63093,146.48397v-12h46.11765v12z" data-paper-data="{&quot;index&quot;:null}"/><path d="M438.39723,110.48397v-13h46.35135v13z" data-paper-data="{&quot;index&quot;:null}"/><path d="M435.74859,184.48397v-10h50.35135v10z" data-paper-data="{&quot;index&quot;:null}"/><path d="M201.74854,247.91915v-12h288.5v12z"/><path d="M203.12282,295.48397v-53h13v53z"/><path d="M28.1228,295.48397v-7h179v7z"/><path d="M28.1228,295.48397v-53h13v53z"/><path d="M115.12284,250.48397v-8h14v8z"/><path d="M197.12282,274.48397v-4h11v4z"/><path d="M199.12282,249.48397v-3h15v3z"/><path d="M-3.8772,368.48397v-12h488v12z"/><path d="M47.12282,338.48397v-3h16v3z"/><path d="M174.12282,323.60897v-3.75h12v3.75z"/><path d="M120.12284,348.45384v-28.46988h10v28.46988z"/><path d="M231.62285,346.48397v-25.96988h10v25.96988z"/><path d="M215.84334,295.48397v-2.5h8v2.5z"/><path d="M270.34333,287.98395v-4.5h8v4.5z"/><path d="M312.41078,357.48397v-98h7.5v98z"/><path d="M357.67309,358.98397v-31h8.2377v31z"/><path d="M317.49704,357.21845v-2.69048h41v2.69048z"/></g></g></svg>