<svg version="1.1" xmlns="http://www.w3.org/2000/svg" xmlns:xlink="http://www.w3.org/1999/xlink" width="584.44895" height="374.58871" viewBox="0,0,584.44895,374.58871"><g transform="translate(8.59044,6.73072)"><g data-paper-data="{&quot;isPaintingLayer&quot;:true}" fill="#ff7a00" fill-rule="nonzero" stroke="none" stroke-width="0" stroke-linecap="butt" stroke-linejoin="miter" stroke-miterlimit="10" stroke-dasharray="" stroke-dashoffset="0" style="mix-blend-mode: normal"><path d="M21.60621,306.8375v-308.12158h13.92727v308.12158z"/><path d="M-8.59044,367.85799v-16h584.44895v16z"/><path d="M68.4391,50.02764v-10.51051h211.35075v10.51051z"/><path d="M29.0391,306.78441v-18.01802h243.24324v18.01802z"/><path d="M310.90957,340.28702v-13h26v13z"/><path d="M269.90957,306.75122v-6h6v6z"/><path d="M335.66071,353.72787v-130.75h21.75v130.75z"/><path d="M33.69168,271.22992v-5.54167h10.6875v5.54167z"/><path d="M58.19173,248.90755v-5.05556h9.75v5.05556z"/><path d="M33.44168,224.62577v-5.25h12v5.25z"/><path d="M35.61396,198.63794v-4h10.5v4z"/><path d="M64.56468,226.46083v-19.6389h302.08333v19.6389z"/><path d="M64.56468,248.96441v-79.44805h10.91667v79.44805z"/><path d="M265.92202,176.29903v-8.91667h23v8.91667z"/><path d="M177.06472,176.183v-8.75h19.25v8.75z"/><path d="M64.54955,176.183v-8.75001h39.43182v8.75001z"/><path d="M73.35278,195.98232v-7.66667h30.66667v7.66667z"/><path d="M347.04166,185.79903v-30.91667h55.58038v30.91667z"/><path d="M347.30032,218.69659v-37.04762h28.80119v37.04762z"/><path d="M74.40961,207.96728v-35h18.5v35z"/><path d="M375.09538,218.64269v-11.8h26.4v11.8z"/><path d="M371.82869,248.19946v-10.2h28.2v10.2z"/><path d="M341.33452,302.30733v-12.2h78.8v12.2z"/><path d="M368.82815,333.14748v-11.8h51.4v11.8z"/><path d="M461.42322,334.67233v-10.4h30.6v10.4z"/><path d="M443.22322,306.87235v-10.4h13.8v10.4z"/><path d="M473.42322,356.4724v-84.2h22.8v84.2z"/><path d="M454.1165,253.67251v-7.8h9.2v7.8z"/><path d="M443.22322,233.47238v-10.4h9.29577v10.4z"/><path d="M443.52744,205.27235v-7.6h10.49577v7.6z"/><path d="M470.71264,179.47238v-10.4h20.11691v10.4z"/><path d="M470.57814,150.27235v-7.6h18.99436v7.6z"/><path d="M438.0725,307.0046v-192.34915h5.73334v192.34915z"/><path d="M472.02362,96.31833v-8.4h12.8v8.4z"/><path d="M418.82361,68.88499v-7.2h35v7.2z"/><path d="M322.70714,68.92633v-16.8h116.53333v16.8z"/><path d="M312.4894,94.66277v-8.2h42.6v8.2z"/><path d="M197.41205,90.11614v-8.4h49.6v8.4z"/><path d="M346.86429,92.18715v-25.6h8.2v25.6z"/><path d="M77.43025,89.38715v-9.8h60.2v9.8z"/><path d="M67.44696,89.38715v-22.8h16.8v22.8z"/><path d="M268.4292,44.46928v-51.2h11.4v51.2z"/><path d="M322.90957,330.56363v-15h19v15z"/></g></g></svg>